<svg width="118" height="118" viewBox="0 0 118 118" fill="none" xmlns="http://www.w3.org/2000/svg">
<g filter="url(#filter0_d_1067_3528)">
<rect x="8" y="2" width="102" height="102" rx="30.3158" fill="#F4F4F4"/>
</g>
<path d="M60.2829 61.0188L66.3779 64.5849L67.3289 62.924L61.2265 59.3537L61.2343 52.2345L59.336 52.2324L59.3282 59.3601L53.2256 62.9216L54.1749 64.5835L60.2829 61.0188Z" fill="#FA4616" stroke="#FA4616" stroke-width="0.728571" stroke-linejoin="round"/>
<path d="M67.3945 76.9368H83.2942V72.5672C83.2942 70.7572 81.7687 69.29 79.8871 69.29H70.8016C68.92 69.29 67.3945 70.7572 67.3945 72.5672V76.9368Z" fill="#FA4616"/>
<path d="M52.3701 48.5354H68.2772V44.1658C68.2772 42.3559 66.7512 40.8887 64.8686 40.8887H55.7788C53.8962 40.8887 52.3701 42.3559 52.3701 44.1658V48.5354Z" fill="#FA4616"/>
<path fill-rule="evenodd" clip-rule="evenodd" d="M37.3506 72.6756V76.9999H53.2542V72.6756C53.2542 70.8058 51.5663 69.29 49.4843 69.29H41.1204C39.0384 69.29 37.3506 70.8058 37.3506 72.6756ZM49.7261 72.7616V73.9989H40.8938V72.7616C40.8938 72.5685 41.0712 72.4117 41.29 72.4117H49.3299C49.5487 72.4117 49.7261 72.5685 49.7261 72.7616Z" fill="black"/>
<path d="M49.7769 63.6311C49.7769 66.1064 47.7721 68.1132 45.2991 68.1132C42.8261 68.1132 40.8213 66.1064 40.8213 63.6311C40.8213 61.1556 42.8261 59.1489 45.2991 59.1489C47.7721 59.1489 49.7769 61.1556 49.7769 63.6311ZM43.8075 63.6311C43.8075 64.4556 44.4753 65.1241 45.2991 65.1241C46.1229 65.1241 46.7907 64.4556 46.7907 63.6311C46.7907 62.8064 46.1229 62.1381 45.2991 62.1381C44.4753 62.1381 43.8075 62.8064 43.8075 63.6311Z" fill="black"/>
<path d="M79.8246 63.6311C79.8246 66.1064 77.8199 68.1132 75.3469 68.1132C72.8739 68.1132 70.8691 66.1064 70.8691 63.6311C70.8691 61.1556 72.8739 59.1489 75.3469 59.1489C77.8199 59.1489 79.8246 61.1556 79.8246 63.6311Z" fill="#FA4616"/>
<path d="M64.7555 35.4822C64.7555 37.9576 62.7507 39.9643 60.2775 39.9643C57.8045 39.9643 55.7998 37.9576 55.7998 35.4822C55.7998 33.0067 57.8045 31 60.2775 31C62.7507 31 64.7555 33.0067 64.7555 35.4822Z" fill="#FA4616"/>
<defs>
<filter id="filter0_d_1067_3528" x="0" y="0" width="118" height="118" filterUnits="userSpaceOnUse" color-interpolation-filters="sRGB">
<feFlood flood-opacity="0" result="BackgroundImageFix"/>
<feColorMatrix in="SourceAlpha" type="matrix" values="0 0 0 0 0 0 0 0 0 0 0 0 0 0 0 0 0 0 127 0" result="hardAlpha"/>
<feOffset dy="6"/>
<feGaussianBlur stdDeviation="4"/>
<feComposite in2="hardAlpha" operator="out"/>
<feColorMatrix type="matrix" values="0 0 0 0 0.641667 0 0 0 0 0.641667 0 0 0 0 0.641667 0 0 0 0.25 0"/>
<feBlend mode="normal" in2="BackgroundImageFix" result="effect1_dropShadow_1067_3528"/>
<feBlend mode="normal" in="SourceGraphic" in2="effect1_dropShadow_1067_3528" result="shape"/>
</filter>
</defs>
</svg>
