<svg width="118" height="118" viewBox="0 0 118 118" fill="none" xmlns="http://www.w3.org/2000/svg">
<g filter="url(#filter0_d_1019_3509)">
<rect x="8" y="2" width="102" height="102" rx="30.3158" fill="#F4F4F4"/>
</g>
<path d="M86.2858 70.9999V29.8571C86.2858 28.4369 85.1346 27.2856 83.7144 27.2856H32.2858C30.8656 27.2856 29.7144 28.4369 29.7144 29.8571V70.9999" stroke="black" stroke-width="1.71429"/>
<path d="M91.4284 73.5715H24.5713V76.143C24.5713 78.9834 26.8738 81.2858 29.7141 81.2858H86.2856C89.126 81.2858 91.4284 78.9834 91.4284 76.143V73.5715Z" stroke="black" stroke-width="1.71429"/>
<path d="M64.4284 43.1864C64.4284 46.7368 61.5502 49.615 57.9999 49.615C54.4495 49.615 51.5713 46.7368 51.5713 43.1864C51.5713 39.636 54.4495 36.7578 57.9999 36.7578C61.5502 36.7578 64.4284 39.636 64.4284 43.1864Z" fill="#FA4616"/>
<path d="M45.1431 58.1429C45.1431 55.3025 47.4456 53 50.2859 53H65.7145C68.5549 53 70.8573 55.3025 70.8573 58.1429V65.8571H45.1431V58.1429Z" fill="#FA4616"/>
<defs>
<filter id="filter0_d_1019_3509" x="0" y="0" width="118" height="118" filterUnits="userSpaceOnUse" color-interpolation-filters="sRGB">
<feFlood flood-opacity="0" result="BackgroundImageFix"/>
<feColorMatrix in="SourceAlpha" type="matrix" values="0 0 0 0 0 0 0 0 0 0 0 0 0 0 0 0 0 0 127 0" result="hardAlpha"/>
<feOffset dy="6"/>
<feGaussianBlur stdDeviation="4"/>
<feComposite in2="hardAlpha" operator="out"/>
<feColorMatrix type="matrix" values="0 0 0 0 0.641667 0 0 0 0 0.641667 0 0 0 0 0.641667 0 0 0 0.25 0"/>
<feBlend mode="normal" in2="BackgroundImageFix" result="effect1_dropShadow_1019_3509"/>
<feBlend mode="normal" in="SourceGraphic" in2="effect1_dropShadow_1019_3509" result="shape"/>
</filter>
</defs>
</svg>
