<svg width="118" height="118" viewBox="0 0 118 118" fill="none" xmlns="http://www.w3.org/2000/svg">
<g filter="url(#filter0_d_1019_3508)">
<rect x="8" y="2" width="102" height="102" rx="30.3158" fill="#F4F4F4"/>
</g>
<path d="M36.7141 79.6428C39.1205 79.6428 41.0712 77.692 41.0712 75.2856C41.0712 72.8792 39.1205 70.9285 36.7141 70.9285C34.3077 70.9285 32.3569 72.8792 32.3569 75.2856C32.3569 77.692 34.3077 79.6428 36.7141 79.6428Z" fill="#FA4616"/>
<path d="M36.7141 57.8571C39.1205 57.8571 41.0712 55.9063 41.0712 53.5C41.0712 51.0936 39.1205 49.1428 36.7141 49.1428C34.3077 49.1428 32.3569 51.0936 32.3569 53.5C32.3569 55.9063 34.3077 57.8571 36.7141 57.8571Z" fill="#FA4616"/>
<path d="M36.7141 38.2499C39.1205 38.2499 41.0712 36.2992 41.0712 33.8928C41.0712 31.4864 39.1205 29.5356 36.7141 29.5356C34.3077 29.5356 32.3569 31.4864 32.3569 33.8928C32.3569 36.2992 34.3077 38.2499 36.7141 38.2499Z" fill="#FA4616"/>
<path d="M45.4287 53.5H54.143" stroke="black" stroke-width="1.71429"/>
<path d="M45.4287 75.2857H51.9644C53.1676 75.2857 54.143 74.3103 54.143 73.1071V36.0714C54.143 34.8682 53.1676 33.8928 51.9644 33.8928H45.4287" stroke="black" stroke-width="1.71429"/>
<path d="M67.2146 81.8215L67.2144 64.3929H65.021C63.8235 64.3929 62.8503 63.4263 62.8425 62.2289L62.7261 44.8003C62.7181 43.5914 63.6958 42.6072 64.9047 42.6072H78.121C79.3186 42.6072 80.2915 43.5737 80.2996 44.7712L80.4159 62.1997C80.424 63.4086 79.4462 64.3929 78.2373 64.3929H75.9287L75.9289 81.8215" stroke="black" stroke-width="1.71429"/>
<path d="M75.4947 32.0298C75.4947 34.1956 73.739 35.9513 71.5733 35.9513C69.4076 35.9513 67.6519 34.1956 67.6519 32.0298C67.6519 29.8641 69.4076 28.1084 71.5733 28.1084C73.739 28.1084 75.4947 29.8641 75.4947 32.0298Z" stroke="black" stroke-width="1.54286"/>
<defs>
<filter id="filter0_d_1019_3508" x="0" y="0" width="118" height="118" filterUnits="userSpaceOnUse" color-interpolation-filters="sRGB">
<feFlood flood-opacity="0" result="BackgroundImageFix"/>
<feColorMatrix in="SourceAlpha" type="matrix" values="0 0 0 0 0 0 0 0 0 0 0 0 0 0 0 0 0 0 127 0" result="hardAlpha"/>
<feOffset dy="6"/>
<feGaussianBlur stdDeviation="4"/>
<feComposite in2="hardAlpha" operator="out"/>
<feColorMatrix type="matrix" values="0 0 0 0 0.641667 0 0 0 0 0.641667 0 0 0 0 0.641667 0 0 0 0.25 0"/>
<feBlend mode="normal" in2="BackgroundImageFix" result="effect1_dropShadow_1019_3508"/>
<feBlend mode="normal" in="SourceGraphic" in2="effect1_dropShadow_1019_3508" result="shape"/>
</filter>
</defs>
</svg>
