<svg width="220" height="6" viewBox="0 0 220 6" fill="none" xmlns="http://www.w3.org/2000/svg">
<path d="M220 2.99998L215 0.11323L215 5.88673L220 2.99998ZM4.39228e-08 3.5L1 3.5L1 2.5L-4.39228e-08 2.5L4.39228e-08 3.5ZM3 3.5L5 3.5L5 2.5L3 2.5L3 3.5ZM7 3.5L9 3.5L9 2.5L7 2.5L7 3.5ZM11 3.5L13 3.5L13 2.5L11 2.5L11 3.5ZM15 3.5L17 3.5L17 2.5L15 2.5L15 3.5ZM19 3.5L21 3.5L21 2.5L19 2.5L19 3.5ZM23 3.5L25 3.5L25 2.5L23 2.5L23 3.5ZM27 3.5L29 3.5L29 2.5L27 2.5L27 3.5ZM31 3.5L33 3.5L33 2.5L31 2.5L31 3.5ZM35 3.5L37 3.5L37 2.5L35 2.5L35 3.5ZM39 3.5L41 3.5L41 2.5L39 2.5L39 3.5ZM43 3.5L45 3.5L45 2.5L43 2.5L43 3.5ZM47 3.5L49 3.5L49 2.5L47 2.5L47 3.5ZM51 3.5L53 3.5L53 2.5L51 2.5L51 3.5ZM55 3.5L57 3.5L57 2.5L55 2.5L55 3.5ZM59 3.49999L61 3.49999L61 2.49999L59 2.49999L59 3.49999ZM63 3.49999L65 3.49999L65 2.49999L63 2.49999L63 3.49999ZM67 3.49999L69 3.49999L69 2.49999L67 2.49999L67 3.49999ZM71 3.49999L73 3.49999L73 2.49999L71 2.49999L71 3.49999ZM75 3.49999L77 3.49999L77 2.49999L75 2.49999L75 3.49999ZM79 3.49999L81 3.49999L81 2.49999L79 2.49999L79 3.49999ZM83 3.49999L85 3.49999L85 2.49999L83 2.49999L83 3.49999ZM87 3.49999L89 3.49999L89 2.49999L87 2.49999L87 3.49999ZM91 3.49999L93 3.49999L93 2.49999L91 2.49999L91 3.49999ZM95 3.49999L97 3.49999L97 2.49999L95 2.49999L95 3.49999ZM99 3.49999L101 3.49999L101 2.49999L99 2.49999L99 3.49999ZM103 3.49999L105 3.49999L105 2.49999L103 2.49999L103 3.49999ZM107 3.49999L109 3.49999L109 2.49999L107 2.49999L107 3.49999ZM111 3.49999L113 3.49999L113 2.49999L111 2.49999L111 3.49999ZM115 3.49999L117 3.49999L117 2.49999L115 2.49999L115 3.49999ZM119 3.49999L121 3.49999L121 2.49999L119 2.49999L119 3.49999ZM123 3.49999L125 3.49999L125 2.49999L123 2.49999L123 3.49999ZM127 3.49999L129 3.49999L129 2.49999L127 2.49999L127 3.49999ZM131 3.49999L133 3.49999L133 2.49999L131 2.49999L131 3.49999ZM135 3.49999L137 3.49999L137 2.49999L135 2.49999L135 3.49999ZM139 3.49999L141 3.49999L141 2.49999L139 2.49999L139 3.49999ZM143 3.49999L145 3.49999L145 2.49999L143 2.49999L143 3.49999ZM147 3.49999L149 3.49999L149 2.49999L147 2.49999L147 3.49999ZM151 3.49999L153 3.49999L153 2.49999L151 2.49999L151 3.49999ZM155 3.49999L157 3.49999L157 2.49999L155 2.49999L155 3.49999ZM159 3.49999L161 3.49999L161 2.49999L159 2.49999L159 3.49999ZM163 3.49999L165 3.49999L165 2.49999L163 2.49999L163 3.49999ZM167 3.49999L169 3.49999L169 2.49999L167 2.49999L167 3.49999ZM171 3.49999L173 3.49998L173 2.49998L171 2.49999L171 3.49999ZM175 3.49998L177 3.49998L177 2.49998L175 2.49998L175 3.49998ZM179 3.49998L181 3.49998L181 2.49998L179 2.49998L179 3.49998ZM183 3.49998L185 3.49998L185 2.49998L183 2.49998L183 3.49998ZM187 3.49998L189 3.49998L189 2.49998L187 2.49998L187 3.49998ZM191 3.49998L193 3.49998L193 2.49998L191 2.49998L191 3.49998ZM195 3.49998L197 3.49998L197 2.49998L195 2.49998L195 3.49998ZM199 3.49998L201 3.49998L201 2.49998L199 2.49998L199 3.49998ZM203 3.49998L205 3.49998L205 2.49998L203 2.49998L203 3.49998ZM207 3.49998L209 3.49998L209 2.49998L207 2.49998L207 3.49998ZM211 3.49998L213 3.49998L213 2.49998L211 2.49998L211 3.49998ZM215 3.49998L217 3.49998L217 2.49998L215 2.49998L215 3.49998Z" fill="#676767"/>
</svg>
