<svg width="175" height="40" viewBox="0 0 175 40" fill="none" xmlns="http://www.w3.org/2000/svg">
<path d="M106.123 35H100L110.877 7H117L106.123 35Z" fill="black"/>
<path d="M133.296 7.33019C134.592 7.33019 135.692 7.72642 136.469 8.45283C137.247 9.17925 137.635 10.2358 137.635 11.4906C137.635 12.8113 137.247 13.8019 136.405 14.5283C135.628 15.2547 134.397 15.5849 132.908 15.5849H125.785V20.6038H123V7.39623H133.296V7.33019ZM132.584 13.3396C134.073 13.3396 134.786 12.7453 134.786 11.5566C134.786 10.2358 134.009 9.64151 132.455 9.64151H125.72V13.4057H132.584V13.3396ZM155.249 20.6038H152.465L148.968 15.5849H143.269V20.6038H140.484V7.39623H150.716C152.076 7.39623 153.177 7.79245 153.954 8.51887C154.731 9.24528 155.12 10.3019 155.12 11.5566C155.12 12.6792 154.796 13.6038 154.148 14.2642C153.565 14.9245 152.788 15.3208 151.752 15.4528L155.249 20.6038ZM150.133 13.3396C151.623 13.3396 152.335 12.7453 152.335 11.5566C152.335 10.2358 151.558 9.64151 149.939 9.64151H143.269V13.4057H150.133V13.3396ZM175 13.934C175 16.1132 174.158 17.8302 172.41 19.217C170.856 20.4057 168.978 21 166.711 21C164.445 21 162.502 20.4057 160.948 19.217C159.199 17.8962 158.357 16.1132 158.357 14C158.357 11.8868 159.264 10.1038 161.012 8.78302C162.567 7.59434 164.445 7 166.711 7C168.978 7 170.856 7.59434 172.41 8.78302C174.158 10.1038 175 11.8208 175 13.934ZM172.086 13.934C172.086 12.5472 171.503 11.4906 170.402 10.6321C169.431 9.90566 168.2 9.50943 166.776 9.50943C165.157 9.50943 163.927 9.90566 162.89 10.7642C161.919 11.6226 161.401 12.6792 161.401 13.934C161.401 15.2547 161.919 16.3113 162.89 17.1038C163.862 17.8962 165.157 18.2925 166.776 18.2925C168.395 18.2925 169.69 17.8962 170.661 17.0377C171.568 16.3113 172.086 15.2547 172.086 13.934Z" fill="black"/>
<path d="M26.1551 34.2494H26.2843H26.1551ZM26.026 34.2494H26.2197H26.026ZM58.3162 29.5874V22.4304H71.2969V18.0311H58.3162V12.1216H72.3302L75.1072 7.59095L70.974 7.65661H58.1871L53.0852 7.59095V34.1181L58.51 33.9867H71.0386L75.4947 34.1837L72.7823 29.5874H58.3162ZM26.1551 34.0524L25.9614 34.2494L20.472 33.9867L18.2117 28.0116H12.9807H7.81425L5.68309 33.9867L0 34.1837L10.3329 7.65661H13.0453H15.9514L26.1551 33.8554V34.0524ZM16.5972 23.6123L13.0453 13.9601V13.8288L9.55792 23.6123H13.1099H16.5972ZM95.9667 22.1677C95.2563 21.0515 94.2876 20.1322 93.1252 19.4756C91.8981 18.819 90.0253 18.2281 87.5067 17.5715C84.9234 16.9148 83.3735 16.3896 82.6631 15.7986C82.1465 15.4046 81.8882 14.8137 81.8882 14.2227C81.8882 13.5661 82.3402 12.7125 82.9214 12.3186C83.761 11.6619 84.7943 11.3993 86.3442 11.3993C87.8296 11.3993 88.9274 11.9903 89.6378 12.5812C90.3482 13.1722 90.8648 14.1571 91.0586 15.4703L96.4834 16.1269C96.3542 13.6974 95.6438 11.6619 94.0939 9.95475C92.6085 8.31322 89.5087 7 86.2796 7C84.2776 7 82.6631 7.59095 81.3069 8.1819C79.8862 8.77285 78.7883 9.69211 78.0779 10.8083C77.3675 11.9903 76.98 13.2378 76.98 14.6167C76.98 16.7179 77.755 18.4907 79.3695 19.8696C80.532 20.9202 82.4694 21.7738 85.2463 22.496C87.4421 23.0213 88.8629 23.4153 89.4441 23.6779C90.3482 24.0062 90.994 24.3346 91.3169 24.7942C91.6398 25.2538 91.8336 25.7791 91.8336 26.3701C91.8336 27.2893 91.3815 28.1429 90.5419 28.9308C89.7024 29.6531 88.4754 30.3097 86.7963 30.3097C85.1818 30.3097 83.8256 29.5874 82.9214 28.7995C82.0173 27.9459 81.3715 26.6984 81.0486 24.9912L75.6884 24.4659C75.6884 27.552 77.3029 30.7037 79.0466 32.2796C80.7903 33.7898 83.3089 34.8403 86.6025 34.9717C89.1212 35.103 90.219 34.7747 92.1565 34.0524C93.7064 33.4615 94.9334 32.0826 95.773 30.7037C96.6125 29.3905 97 27.9459 97 26.5014C97 24.6629 96.6125 23.284 95.9667 22.1677ZM49.9854 7.52529L43.5919 7.65661L38.49 16.1269L33.3236 7.65661L27.1238 7.59095L35.261 20.2636L26.2197 33.9867L26.3489 34.2494L32.6778 33.9867L38.4254 24.9255L44.1731 33.9867L50.8249 34.1837L41.5899 20.4605L49.9854 7.52529Z" fill="black"/>
</svg>
