<svg width="96" height="96" viewBox="0 0 96 96" fill="none" xmlns="http://www.w3.org/2000/svg">
<path fill-rule="evenodd" clip-rule="evenodd" d="M87.9996 78L88 28H92L91.9996 78C91.9996 81.3116 89.3188 84 86.003 84H9.9976C6.6823 84 3.99998 81.3122 4 78L4.00032 28H8.00032L8 78C8 79.1062 8.89458 80 9.9976 80H86.003C87.1054 80 87.9996 79.1068 87.9996 78Z" fill="black"/>
<path d="M4 18V24H92V18C92 14.6863 89.3206 12 86.0068 12L9.99882 12C6.68512 12 4 14.6863 4 18Z" fill="#FA4616"/>
<path d="M48 30L26 46L48 62L66 48.909V58H70V46H48V42H64.5L48 30Z" fill="#FA4616"/>
<path d="M34 63.9997V56.2695L48 66.4513L62 56.2695V63.9997L48.0062 73.9997L34 63.9997Z" fill="#FA4616"/>
</svg>
