<svg width="96" height="96" viewBox="0 0 96 96" fill="none" xmlns="http://www.w3.org/2000/svg">
<path fill-rule="evenodd" clip-rule="evenodd" d="M56 48C68.1502 48 78 38.1502 78 26C78 13.8497 68.1502 4 56 4C43.8498 4 34 13.8497 34 26C34 38.1502 43.8498 48 56 48ZM64.528 19.2134L54.6284 29.113L49.4148 23.8998L46.5864 26.7282L53.2142 33.3556C53.9954 34.1366 55.2616 34.1366 56.0426 33.3556L67.3564 22.0418L64.528 19.2134Z" fill="#FA4616"/>
<path d="M6.12141 20.8714L13.9999 12.5984L13.9998 78.0004H6.00001V82.0004H13.9998V90.0004H17.9998V82.0004H83.5652L75.27 89.8998L78.0984 92.7282L89.412 81.4146C89.7872 81.0396 89.9978 80.5308 89.9978 80.0004C89.9978 79.47 89.7872 78.9612 89.412 78.5862L78.0984 67.2724L75.27 70.1008L83.5652 78.0004H17.9998L17.9999 12.5542L25.9204 20.8714L28.7488 18.0431L17.4351 6.72933C17.06 6.35425 16.5513 6.14355 16.0209 6.14355C15.4905 6.14355 14.9818 6.35425 14.6067 6.72933L3.29297 18.043L6.12141 20.8714Z" fill="black"/>
<path fill-rule="evenodd" clip-rule="evenodd" d="M38.207 70C43.1776 70 47.207 65.9706 47.207 61C47.207 56.0294 43.1776 52 38.207 52C33.2364 52 29.207 56.0294 29.207 61C29.207 65.9706 33.2364 70 38.207 70ZM38.207 74C45.3868 74 51.207 68.1798 51.207 61C51.207 53.8202 45.3868 48 38.207 48C31.0274 48 25.207 53.8202 25.207 61C25.207 68.1798 31.0274 74 38.207 74Z" fill="black"/>
<path fill-rule="evenodd" clip-rule="evenodd" d="M79 58C81.7614 58 84 55.7614 84 53C84 50.2386 81.7614 48 79 48C76.2386 48 74 50.2386 74 53C74 55.7614 76.2386 58 79 58ZM79 62C83.9706 62 88 57.9706 88 53C88 48.0294 83.9706 44 79 44C74.0294 44 70 48.0294 70 53C70 57.9706 74.0294 62 79 62Z" fill="black"/>
</svg>
