<svg width="96" height="96" viewBox="0 0 96 96" fill="none" xmlns="http://www.w3.org/2000/svg">
<path d="M52 2.71777C56.9706 2.71777 61 6.74721 61 11.7178C61 16.6883 56.9706 20.7178 52 20.7178C47.0294 20.7178 43 16.6883 43 11.7178C43 6.74719 47.0294 2.71777 52 2.71777Z" fill="#FA4616"/>
<path d="M88.0002 49.9998C88.0002 34.1802 78.3424 20.62 64.6078 14.9004C64.864 13.8819 65.0002 12.8156 65.0002 11.7176C65.0002 11.3871 64.9878 11.0596 64.9636 10.7354C80.7704 16.7588 92.0002 32.0676 92.0002 49.9998C92.0002 73.1942 73.2126 91.9998 50.0336 91.9998C38.0716 91.9998 28.212 87.4374 20.5678 79.3958L17.8727 76.7008L18 88H14V72C14 71.4696 14.2107 70.9608 14.5858 70.5858C14.9609 70.2108 15.4696 70 16 70H32V74L20.4046 73.5758L23.4326 76.6038L23.4506 76.6226C30.3672 83.907 39.195 87.9998 50.0336 87.9998C71.0004 87.9998 88.0002 70.9882 88.0002 49.9998Z" fill="black"/>
<path d="M20 48C20 43.0294 15.9706 39 11 39C6.02944 39 2 43.0294 2 48C2 52.9706 6.02944 57 11 57C15.9706 57 20 52.9706 20 48Z" fill="#FA4616"/>
<path d="M32 21.6436C32 16.673 27.9706 12.6436 23 12.6436C18.0294 12.6436 14 16.673 14 21.6436C14 26.6141 18.0294 30.6436 23 30.6436C27.9706 30.6436 32 26.6141 32 21.6436Z" fill="#FA4616"/>
<path d="M36 54C36 51.7908 37.7908 50 40 50H60C62.2092 50 64 51.7908 64 54V64H36V54Z" fill="#FA4616"/>
<path d="M50 46C53.866 46 57 42.866 57 39C57 35.134 53.866 32 50 32C46.134 32 43 35.134 43 39C43 42.866 46.134 46 50 46Z" fill="#FA4616"/>
</svg>
