<svg width="96" height="96" viewBox="0 0 96 96" fill="none" xmlns="http://www.w3.org/2000/svg">
<path d="M57 15C57 19.9706 52.9706 24 48 24C43.0294 24 39 19.9706 39 15C39 10.0294 43.0294 6 48 6C52.9706 6 57 10.0294 57 15Z" fill="#FA4616"/>
<path d="M32 58V34C32 30.6862 34.6862 28 38 28H42L48 34L54 28H57.9998C61.3136 28 64 30.6864 63.9998 34.0002L63.999 58.0012C63.9988 61.3142 61.313 64 58 64V90H38V64C34.6862 64 32 61.3138 32 58Z" fill="#FA4616"/>
<path fill-rule="evenodd" clip-rule="evenodd" d="M34 20C34 24.4182 30.4182 28 26 28C21.5818 28 18 24.4182 18 20C18 15.5817 21.5818 12 26 12C30.4182 12 34 15.5817 34 20ZM30 20C30 22.2092 28.2092 24 26 24C23.7908 24 22 22.2092 22 20C22 17.7909 23.7908 16 26 16C28.2092 16 30 17.7909 30 20Z" fill="black"/>
<path d="M18 89.9998V69.9998C14.6863 69.9998 12 67.3134 12 63.9998V38C12 34.6862 14.6863 32 18 32H28V36H18C16.8954 36 16 36.8954 16 38V63.9998C16 65.1044 16.8954 65.9998 18 65.9998L22 65.9996V89.9998H18Z" fill="black"/>
<path fill-rule="evenodd" clip-rule="evenodd" d="M62 20C62 24.4182 65.5818 28 70 28C74.4182 28 78 24.4182 78 20C78 15.5817 74.4182 12 70 12C65.5818 12 62 15.5817 62 20ZM66 20C66 22.2092 67.7908 24 70 24C72.2092 24 74 22.2092 74 20C74 17.7909 72.2092 16 70 16C67.7908 16 66 17.7909 66 20Z" fill="black"/>
<path d="M78 89.9998V69.9998C81.3138 69.9998 84 67.3134 84 63.9998V38C84 34.6862 81.3138 32 78 32H68V36H78C79.1046 36 80 36.8954 80 38V63.9998C80 65.1044 79.1046 65.9998 78 65.9998L74 65.9996V89.9998H78Z" fill="black"/>
</svg>
