<svg width="96" height="96" viewBox="0 0 96 96" fill="none" xmlns="http://www.w3.org/2000/svg">
<path fill-rule="evenodd" clip-rule="evenodd" d="M55.9999 50C52.6861 50 49.9999 52.6862 49.9999 56V80C49.9999 83.3138 52.6861 86 55.9999 86H79.9999C83.3137 86 85.9999 83.3138 85.9999 80V56C85.9999 52.6862 83.3137 50 79.9999 50H55.9999ZM66.6043 58.6703V65.6704H59.6044V69.6704H66.6043V76.6703H70.6043V69.6704H77.6044V65.6704H70.6043V58.6703H66.6043Z" fill="#FA4616"/>
<path fill-rule="evenodd" clip-rule="evenodd" d="M17.0549 10C13.7412 10 11.0549 12.6863 11.0549 16V40C11.0549 43.3138 13.7412 46 17.0549 46H41.0549C44.3687 46 47.055 43.3138 47.055 40V16C47.055 12.6863 44.3687 10 41.0549 10H17.0549ZM37.0549 24H19.0549V20H37.0549V24ZM19.0549 34H36.923V30H19.0549V34Z" fill="#FA4616"/>
<path fill-rule="evenodd" clip-rule="evenodd" d="M10 56C10 52.6862 12.6863 50 16 50H40C43.3138 50 46 52.6862 46 56V80C46 83.3138 43.3138 86 40 86H16C12.6863 86 10 83.3138 10 80V56ZM16 54C14.8954 54 14 54.8954 14 56V80C14 81.1046 14.8954 82 16 82H40C41.1046 82 42 81.1046 42 80V56C42 54.8954 41.1046 54 40 54H16Z" fill="black"/>
<path fill-rule="evenodd" clip-rule="evenodd" d="M50 16C50 12.6863 52.6862 10 56 10H80C83.3138 10 86 12.6863 86 16V40C86 43.3138 83.3138 46 80 46H56C52.6862 46 50 43.3138 50 40V16ZM56 14C54.8954 14 54 14.8954 54 16V40C54 41.1046 54.8954 42 56 42H80C81.1046 42 82 41.1046 82 40V16C82 14.8954 81.1046 14 80 14H56Z" fill="black"/>
</svg>
