<svg width="96" height="96" viewBox="0 0 96 96" fill="none" xmlns="http://www.w3.org/2000/svg">
<path fill-rule="evenodd" clip-rule="evenodd" d="M82 40C77.5818 40 74 43.5818 74 48C74 52.4182 77.5818 56 82 56C86.4182 56 90 52.4182 90 48C90 43.5818 86.4182 40 82 40ZM70 48C70 41.3726 75.3726 36 82 36C88.6274 36 94 41.3726 94 48C94 54.6274 88.6274 60 82 60C75.3726 60 70 54.6274 70 48Z" fill="black"/>
<path d="M70.6358 7.94178C65.844 5.1956 59.7334 6.85382 56.9872 11.6455C54.535 15.9244 55.5948 21.255 59.2616 24.3024L47.9158 44.1684L36.3714 24.3874C40.122 21.3548 41.2248 15.9644 38.7496 11.6455C36.0034 6.85382 29.8928 5.1956 25.101 7.94178C20.3094 10.688 18.6512 16.7986 21.3974 21.5904C23.732 25.664 28.4986 27.473 32.819 26.236L44.3534 46H21.8C20.8734 41.4356 16.8379 38 12 38C6.47714 38 2 42.4772 2 48C2 53.5228 6.47714 58 12 58C16.8379 58 20.8734 54.5644 21.8 50H44.5852L33.224 69.8926C28.8 68.4192 23.8052 70.2116 21.3974 74.413C18.6512 79.2048 20.3094 85.3154 25.101 88.0616C29.8928 90.8078 36.0034 89.1496 38.7496 84.3578C41.1528 80.1646 40.183 74.961 36.6918 71.8864L47.9532 52.1682L59.3224 71.649C55.6064 74.6878 54.5214 80.0536 56.9872 84.356C59.7334 89.1476 65.844 90.8058 70.6358 88.0596C75.4274 85.3134 77.0856 79.2028 74.3394 74.4112C71.995 70.3204 67.1984 68.5134 62.8636 69.781L51.3192 50H66V46H51.4762L62.7858 26.1974C67.1408 27.5096 71.981 25.7056 74.3394 21.5904C77.0856 16.7986 75.4274 10.688 70.6358 7.94178Z" fill="#FA4616"/>
</svg>
