<svg width="96" height="96" viewBox="0 0 96 96" fill="none" xmlns="http://www.w3.org/2000/svg">
<path fill-rule="evenodd" clip-rule="evenodd" d="M74 32H24V28H74V32Z" fill="black"/>
<path fill-rule="evenodd" clip-rule="evenodd" d="M50 42H24V38H50V42Z" fill="black"/>
<path d="M70 51.3706C70 48.4046 72.4046 46 75.3706 46H88.6294C91.5954 46 94 48.4046 94 51.3706V80.6294C94 83.5954 91.5954 86 88.6294 86H75.3706C72.4046 86 70 83.5954 70 80.6294V51.3706Z" fill="#FA4616"/>
<path d="M12 68H66V72H50V82H62V86H34V82H46V72H12C8.6863 72 6 69.3138 6 66V18C6 14.6863 8.68628 12 12 12H82C85.3138 12 88 14.6863 88 18V42H84V18C84 16.8954 83.1046 16 82 16H12C10.8954 16 10 16.8954 10 18V66C10 67.1046 10.8954 68 12 68Z" fill="black"/>
</svg>
