<svg width="40" height="40" viewBox="0 0 40 40" fill="none" xmlns="http://www.w3.org/2000/svg">
<path d="M20 39.9576C31.0457 39.9576 40 31.0128 40 19.9788C40 8.94482 31.0457 0 20 0C8.9543 0 0 8.94482 0 19.9788C0 31.0128 8.9543 39.9576 20 39.9576Z" fill="#FF5114"/>
<path d="M18.0174 27.6004C17.5674 27.6012 17.1294 27.4559 16.7694 27.1862L16.747 27.1695L12.0469 23.5747C11.8292 23.4081 11.6465 23.2003 11.5093 22.9632C11.372 22.726 11.2828 22.4642 11.2468 22.1927C11.2108 21.9211 11.2287 21.6451 11.2995 21.3805C11.3703 21.1158 11.4926 20.8677 11.6594 20.6502C11.8262 20.4328 12.0342 20.2503 12.2716 20.1132C12.5089 19.976 12.7711 19.887 13.0429 19.851C13.3148 19.8151 13.591 19.833 13.856 19.9037C14.1209 19.9744 14.3693 20.0965 14.587 20.2631L17.6313 22.5951L24.8257 13.2225C24.9926 13.0051 25.2007 12.8226 25.4381 12.6856C25.6755 12.5485 25.9377 12.4596 26.2095 12.4237C26.4814 12.3879 26.7576 12.4058 27.0225 12.4767C27.2875 12.5475 27.5358 12.6697 27.7534 12.8364L27.7087 12.8971L27.7546 12.8373C28.1935 13.1743 28.4808 13.6715 28.5532 14.2198C28.6257 14.768 28.4774 15.3226 28.141 15.7619L19.6787 26.7863C19.483 27.0404 19.2313 27.2459 18.9432 27.3871C18.6551 27.5283 18.3383 27.6013 18.0174 27.6004Z" fill="white"/>
</svg>
