<svg width="23" height="25" viewBox="0 0 23 25" fill="none" xmlns="http://www.w3.org/2000/svg">
<path d="M8.55993 24.2017C7.81025 24.2017 7.10022 23.8545 6.64525 23.2559L0.487588 15.1823C0.297211 14.933 0.158224 14.6488 0.0785721 14.3462C-0.00107995 14.0435 -0.0198346 13.7282 0.0233801 13.4183C0.0665947 13.1085 0.170931 12.8101 0.330425 12.5403C0.489919 12.2704 0.701442 12.0344 0.952903 11.8458C1.20427 11.6563 1.49085 11.518 1.7962 11.4387C2.10156 11.3593 2.41969 11.3406 2.73237 11.3834C3.04504 11.4263 3.34611 11.53 3.61832 11.6886C3.89053 11.8472 4.12853 12.0575 4.31867 12.3075L8.37035 17.6159L18.5573 1.38306C18.8951 0.847094 19.4334 0.465981 20.054 0.323314C20.6747 0.180648 21.327 0.288078 21.8679 0.622038C22.9933 1.31636 23.3397 2.7871 22.6365 3.90554L10.6004 23.0764C10.3949 23.4051 10.1117 23.6791 9.77538 23.8746C9.43902 24.0701 9.05966 24.1812 8.67022 24.1982C8.63231 24.2017 8.59784 24.2017 8.55993 24.2017Z" fill="#FA4616"/>
</svg>
